<svg width="37" height="41" viewBox="0 0 37 41" fill="none" xmlns="http://www.w3.org/2000/svg">
<path d="M4.11111 41H32.8889C35.1562 41 37 39.1611 37 36.9V14.35C37 13.8063 36.7834 13.2849 36.3979 12.9004C36.0125 12.516 35.4896 12.3 34.9444 12.3H28.7778V10.25C28.7778 4.59815 24.1672 0 18.5 0C12.8328 0 8.22222 4.59815 8.22222 10.25V12.3H2.05556C1.51039 12.3 0.98755 12.516 0.602058 12.9004C0.216567 13.2849 0 13.8063 0 14.35V36.9C0 39.1611 1.84383 41 4.11111 41ZM12.3333 10.25C12.3333 6.8593 15.1001 4.1 18.5 4.1C21.8999 4.1 24.6667 6.8593 24.6667 10.25V12.3H12.3333V10.25ZM4.11111 16.4H8.22222V20.5H12.3333V16.4H24.6667V20.5H28.7778V16.4H32.8889L32.893 36.9H4.11111V16.4Z" fill="#2B4530"/>
</svg>
